<svg xmlns="http://www.w3.org/2000/svg" viewBox="0 0 64 64"><defs><style>.cls-1{fill:#576385;}.cls-2{fill:#132035;}.cls-3{fill:#181866;}.cls-4{fill:#ff6b00;}.cls-5{fill:#ff1d25;}.cls-6{fill:#ffa673;}.cls-7{fill:#ff5f6a;}</style></defs><title>On Icon_Active</title><g id="Layer_2" data-name="Layer 2"><g id="Active_State_ON_Running" data-name="Active State_ON/Running"><g id="On_Icon_Batch" data-name="On Icon Batch"><g id="Bg_top" data-name="Bg top"><path class="cls-1" d="M56.92.36H7.08A6.62,6.62,0,0,0,3.33,1.51L3.2,1.6A6.69,6.69,0,0,0,.36,7.08V40.4a41,41,0,0,0,10.38,4,25.13,25.13,0,0,1,39-31.19,25,25,0,0,1,6.82,12.53A38.33,38.33,0,0,0,63.27,4.89h0A6.74,6.74,0,0,0,56.92.36ZM7.22,5A2.09,2.09,0,0,1,5.16,7.54a2,2,0,0,1-.89-.2,2.06,2.06,0,0,1-1.15-1.4h0s0-.05,0-.08a2,2,0,0,1-.05-.43A2.12,2.12,0,0,1,5.16,3.32,2.16,2.16,0,0,1,7.07,4.54h0A1.7,1.7,0,0,1,7.22,5ZM59.89,7.34a2,2,0,0,1-.65.18l-.24,0a2.1,2.1,0,0,1-2.11-2.11A2,2,0,0,1,57,4.79a2.5,2.5,0,0,1,.09-.25h0a2.08,2.08,0,0,1,1.4-1.15A2,2,0,0,1,59,3.32h0a2,2,0,0,1,.43,0,2.18,2.18,0,0,1,.75.32,2.11,2.11,0,0,1,.93,1.75,1.7,1.7,0,0,1-.07.51,2.06,2.06,0,0,1-1.15,1.4Z"/><path class="cls-1" d="M5.36,3.7l-.2,0a1.7,1.7,0,0,0-1,.33,1.76,1.76,0,0,0-.73,1.42v.2h0L5.36,3.7Z"/><path class="cls-1" d="M57.36,4.82a.94.94,0,0,0,0,.16,1.63,1.63,0,0,0-.07.45,1.71,1.71,0,0,0,.28,1,1.77,1.77,0,0,0,1.47.8l.2,0a1.43,1.43,0,0,0,.41-.09L57.36,4.82Z"/><path class="cls-1" d="M60.73,5.63l0-.2A1.75,1.75,0,0,0,59,3.68l-.2,0h0l1.93,1.93Z"/><path class="cls-1" d="M6.8,4.82,4.55,7.07h0A1.87,1.87,0,0,0,5,7.16l.2,0a1.77,1.77,0,0,0,1.47-.8,1.71,1.71,0,0,0,.28-1A2.12,2.12,0,0,0,6.85,5C6.83,4.93,6.82,4.87,6.8,4.82Z"/></g><g id="bg_bottom" data-name="bg bottom"><path class="cls-2" d="M60.75,57.8l0-.2L58.8,59.53h0l.2,0a1.76,1.76,0,0,0,1.75-1.75Z"/><path class="cls-2" d="M6.8,58.41a.85.85,0,0,0,0-.17,1.62,1.62,0,0,0,.07-.44,1.74,1.74,0,0,0-.34-1,1.58,1.58,0,0,0-.28-.3,1.73,1.73,0,0,0-1.13-.42l-.2,0-.23,0-.18,0h0L6.8,58.41Z"/><path class="cls-2" d="M63.27,4.89h0a38.33,38.33,0,0,1-6.68,20.87A25.4,25.4,0,0,1,57.14,31,25.13,25.13,0,0,1,14.23,48.77a24.94,24.94,0,0,1-3.49-4.35,41,41,0,0,1-10.38-4V56.92a6.73,6.73,0,0,0,6.72,6.72H56.92a6.74,6.74,0,0,0,6.72-6.72V7.08A6.89,6.89,0,0,0,63.27,4.89Zm-58.11,55a2,2,0,0,1-.55-.08,2.1,2.1,0,0,1-1.56-2,1.7,1.7,0,0,1,.07-.51,2.08,2.08,0,0,1,1.15-1.4,3.12,3.12,0,0,1,.43-.15,2.31,2.31,0,0,1,.46-.05A2.14,2.14,0,0,1,7.27,57.8a2,2,0,0,1-.13.7c0,.06,0,.13-.07.19h0a2.06,2.06,0,0,1-1.4,1.15h0A1.7,1.7,0,0,1,5.16,59.91Zm54.27,0a2,2,0,0,1-.43,0h0a1.7,1.7,0,0,1-.51-.07,2.08,2.08,0,0,1-1.4-1.15,1.69,1.69,0,0,1-.15-.43,2.31,2.31,0,0,1,0-.46A2.14,2.14,0,0,1,59,55.69a2,2,0,0,1,.89.2h0A2.06,2.06,0,0,1,61,57.29a1.7,1.7,0,0,1,.07.51,2.12,2.12,0,0,1-1.33,2A2.3,2.3,0,0,1,59.43,59.87Z"/><path class="cls-2" d="M59.61,56.16l-.22-.06-.18,0-.21,0a1.76,1.76,0,0,0-1.75,1.75,1.47,1.47,0,0,0,.06.42c0,.06,0,.13,0,.19h0l2.25-2.25Z"/><path class="cls-2" d="M3.43,57.6h0v.2a1.75,1.75,0,0,0,1.75,1.75l.2,0h0L5,59.21Z"/></g><g id="Frame_and_rivets" data-name="Frame and rivets"><path id="rivet" class="cls-3" d="M3.12,5.94h0a2.06,2.06,0,0,0,1.15,1.4,2,2,0,0,0,.89.2A2.09,2.09,0,0,0,7.22,5a1.7,1.7,0,0,0-.15-.45h0a2.1,2.1,0,0,0-3.4-.6,2.07,2.07,0,0,0-.62,1.49,2,2,0,0,0,.05.43S3.11,5.92,3.12,5.94ZM6.85,5a2.12,2.12,0,0,1,.06.44,1.71,1.71,0,0,1-.28,1,1.77,1.77,0,0,1-1.47.8l-.2,0a1.36,1.36,0,0,1-.41-.09h0L6.8,4.82S6.83,4.93,6.85,5ZM5.36,3.7,3.43,5.63h0v-.2A1.76,1.76,0,0,1,4.14,4a1.7,1.7,0,0,1,1-.33l.2,0Z"/><path id="rivet-2" data-name="rivet" class="cls-3" d="M59,7.54l.24,0a2,2,0,0,0,.65-.18h0A2.06,2.06,0,0,0,61,5.94a1.7,1.7,0,0,0,.07-.51,2.11,2.11,0,0,0-.93-1.75,2.18,2.18,0,0,0-.75-.32,2,2,0,0,0-.43,0h0a2,2,0,0,0-.49.07,2.08,2.08,0,0,0-1.4,1.15h0a2.5,2.5,0,0,0-.09.25,2,2,0,0,0-.11.64A2.1,2.1,0,0,0,59,7.54Zm0-3.86a1.75,1.75,0,0,1,1.75,1.75l0,.2h0L58.8,3.7h0ZM57.36,4.82h0l2.25,2.25a1.43,1.43,0,0,1-.41.09l-.2,0a1.77,1.77,0,0,1-1.47-.8,1.71,1.71,0,0,1-.28-1A1.63,1.63,0,0,1,57.32,5,.94.94,0,0,1,57.36,4.82Z"/><path id="rivet-3" data-name="rivet" class="cls-3" d="M59.89,55.89h0a2,2,0,0,0-.89-.2,2.14,2.14,0,0,0-2.11,2.11,2.31,2.31,0,0,0,0,.46,1.69,1.69,0,0,0,.15.43,2.08,2.08,0,0,0,1.4,1.15,1.7,1.7,0,0,0,.51.07h0a2,2,0,0,0,.43,0,2.11,2.11,0,0,0,1.68-2.07,1.7,1.7,0,0,0-.07-.51A2.06,2.06,0,0,0,59.89,55.89Zm-2.53,2.52c0-.06,0-.13,0-.19a1.47,1.47,0,0,1-.06-.42A1.76,1.76,0,0,1,59,56.05l.21,0,.18,0,.22.06h0l-2.25,2.25Zm3,.42a1.73,1.73,0,0,1-1.41.72l-.2,0h0l1.93-1.93,0,.2A1.74,1.74,0,0,1,60.41,58.83Z"/><path id="rivet-4" data-name="rivet" class="cls-3" d="M4.61,59.83a2,2,0,0,0,.55.08,1.7,1.7,0,0,0,.51-.07h0a2.06,2.06,0,0,0,1.4-1.15h0c0-.06,0-.13.07-.19a2,2,0,0,0,.13-.7,2.14,2.14,0,0,0-2.11-2.11,2.31,2.31,0,0,0-.46.05,3.12,3.12,0,0,0-.43.15,2.08,2.08,0,0,0-1.15,1.4,1.7,1.7,0,0,0-.07.51A2.1,2.1,0,0,0,4.61,59.83Zm.12-3.72.23,0,.2,0A1.76,1.76,0,0,1,6.91,57.8a1.62,1.62,0,0,1-.07.44.85.85,0,0,1,0,.17h0L4.55,56.16h0ZM3.43,57.6h0L5,59.21l.32.32h0l-.2,0A1.75,1.75,0,0,1,3.41,57.8v-.2Z"/><path id="frame" class="cls-3" d="M63.85,5.62a7.09,7.09,0,0,0-5-5.34A6.82,6.82,0,0,0,56.92,0H7.08A6.82,6.82,0,0,0,5.15.28,7.07,7.07,0,0,0,.21,5.4,7.16,7.16,0,0,0,0,7.08V56.92A7.16,7.16,0,0,0,.21,58.6,7.07,7.07,0,0,0,6,63.91a6,6,0,0,0,1,.09H56.92a5.92,5.92,0,0,0,1-.09,7.09,7.09,0,0,0,5.89-5.53A7,7,0,0,0,64,56.92V7.08A7,7,0,0,0,63.85,5.62ZM3.2,1.6l.13-.09A6.62,6.62,0,0,1,7.08.36H56.92a6.74,6.74,0,0,1,6.35,4.53,6.89,6.89,0,0,1,.37,2.19V56.92a6.74,6.74,0,0,1-6.72,6.72H7.08A6.73,6.73,0,0,1,.36,56.92V7.08A6.69,6.69,0,0,1,3.2,1.6Z"/></g><g id="Button"><path class="cls-4" d="M36.42,32.12l-.63-.85L19,45.53l-1.45,1.23c.7,0,1.41.05,2.12.05h1l1.49-1.26L37,32.94Z"/><path class="cls-4" d="M41.66,29l10.79-9.18A19.43,19.43,0,0,0,51.36,18l-7.88,6.71Z"/><path class="cls-4" d="M18.19,17.11l.24-.14,0,0,8,10.3L44.86,11.55a23.32,23.32,0,0,0-34.12,29l12.82-10.9Z"/><path class="cls-4" d="M38.09,34.42,25.35,45.27,23.78,46.6a43.69,43.69,0,0,0,18.47-6.47l-.4-.55Z"/><path class="cls-4" d="M55.09,27.85a22.83,22.83,0,0,0-1.8-6.36L41.1,31.86l2.66,6.54L44,39A46.16,46.16,0,0,0,55.14,28.22C55.12,28.09,55.11,28,55.09,27.85Z"/><polygon class="cls-3" points="35.79 31.27 36.42 32.12 37.01 32.94 38.09 34.42 41.85 39.58 42.25 40.13 46.44 45.87 46.65 45.76 46.74 45.71 44 38.99 43.76 38.4 41.1 31.86 40.78 31.05 41.66 28.99 42.7 26.55 43.48 24.73 44.75 21.76 46.73 17.11 46.56 17.01 46.45 16.94 36.44 29.9 36.3 30.09 35.6 31 35.63 31.04 35.79 31.27"/><polygon class="cls-3" points="28.48 29.9 26.42 27.24 18.47 16.94 18.43 16.97 18.19 17.11 23.55 29.68 23.64 29.87 24.14 31.05 19.65 42.1 18.27 45.51 18.18 45.71 18.32 45.78 18.48 45.87 18.73 45.52 28.5 32.12 29.32 31 29.32 31 28.74 30.24 28.48 29.9"/><path class="cls-5" d="M19.7,46.81c-.71,0-1.42,0-2.12-.05L16.09,48c.52.48,1.05.93,1.59,1.36l3-2.59Z"/><path class="cls-5" d="M55.14,28.22A46.16,46.16,0,0,1,44,39l2.74,6.72-.09,0-.21.11-4.19-5.74A43.69,43.69,0,0,1,23.78,46.6l-4.57,3.89A23.3,23.3,0,0,0,55.14,28.22Z"/><path class="cls-6" d="M35.63,31l0,0,.7-.91.14-.19,10-13,.11.07.17.1-2,4.65-1.27,3L51.36,18a22.23,22.23,0,0,0-2.88-3.5,23.72,23.72,0,0,0-3.62-3L26.42,27.24l2.06,2.66.26.34.58.76h0l-.82,1.12-9.77,13.4-.25.35-.16-.09-.14-.07.09-.2,1.38-3.41,4.49-11-.5-1.18-.08-.19L10.74,40.58A23.78,23.78,0,0,0,13.32,45c.4.53.83,1,1.28,1.55,1,.12,2,.21,3,.26L19,45.53,35.79,31.27Z"/><path class="cls-6" d="M22.21,45.54,20.72,46.8c1,0,2.05-.09,3.06-.2l1.57-1.33L38.09,34.42,37,32.94Z"/><path class="cls-6" d="M52.45,19.81,41.66,29l-.88,2.06.32.81L53.29,21.49Q52.9,20.64,52.45,19.81Z"/><path class="cls-7" d="M15.52,47.48l.57.55,1.49-1.27c-1,0-2-.14-3-.26C14.89,46.83,15.2,47.16,15.52,47.48Z"/><path class="cls-7" d="M20.72,46.8l-3,2.59c.5.39,1,.76,1.53,1.1l4.57-3.89C22.77,46.71,21.75,46.77,20.72,46.8Z"/><path id="frame-2" data-name="frame" class="cls-3" d="M10.74,44.42a25.13,25.13,0,0,0,39,4.35A25,25,0,0,0,57.14,31a25.4,25.4,0,0,0-.55-5.24A25.13,25.13,0,0,0,14.23,13.23a25.12,25.12,0,0,0-3.49,31.19Zm37.74-29.9A22.23,22.23,0,0,1,51.36,18a19.43,19.43,0,0,1,1.09,1.79q.45.82.84,1.68a22.83,22.83,0,0,1,1.8,6.36c0,.12,0,.24,0,.37A23.31,23.31,0,0,1,19.21,50.49c-.52-.34-1-.71-1.53-1.1s-1.07-.88-1.59-1.36l-.57-.55c-.32-.32-.63-.65-.92-1-.45-.5-.88-1-1.28-1.55a23.78,23.78,0,0,1-2.58-4.37,23.32,23.32,0,0,1,34.12-29A23.72,23.72,0,0,1,48.48,14.52Z"/></g></g></g></g></svg>