<svg xmlns="http://www.w3.org/2000/svg" viewBox="0 0 64 64"><defs><style>.cls-1{fill:#576385;}.cls-2{fill:#132035;}.cls-3{fill:#181866;}.cls-4{fill:none;}.cls-5{fill:#41ffc7;}.cls-6{fill:#c2ffe6;}.cls-7{fill:#47ffe0;}.cls-8{fill:#37d8ad;}</style></defs><title>Off Icon_Inactive </title><g id="Layer_2" data-name="Layer 2"><g id="Inactive_State_Off_OnLoad" data-name="Inactive State_Off/OnLoad"><g id="Off_Icon_Batch" data-name="Off Icon Batch"><g id="Bg_top" data-name="Bg top"><path class="cls-1" d="M56.92.36H7.08A6.62,6.62,0,0,0,3.33,1.51L3.2,1.6A6.69,6.69,0,0,0,.36,7.08V40.4a41,41,0,0,0,10.38,4,25.13,25.13,0,0,1,39-31.19,25,25,0,0,1,6.82,12.53A38.33,38.33,0,0,0,63.27,4.89h0A6.74,6.74,0,0,0,56.92.36ZM7.22,5A2.09,2.09,0,0,1,5.16,7.54a2,2,0,0,1-.89-.2,2.06,2.06,0,0,1-1.15-1.4h0s0-.05,0-.08a2,2,0,0,1-.05-.43A2.12,2.12,0,0,1,5.16,3.32,2.16,2.16,0,0,1,7.07,4.54h0A1.7,1.7,0,0,1,7.22,5ZM59.89,7.34a2,2,0,0,1-.65.18l-.24,0a2.1,2.1,0,0,1-2.11-2.11A2,2,0,0,1,57,4.79a2.5,2.5,0,0,1,.09-.25h0a2.08,2.08,0,0,1,1.4-1.15A2,2,0,0,1,59,3.32h0a2,2,0,0,1,.43,0,2.18,2.18,0,0,1,.75.32,2.11,2.11,0,0,1,.93,1.75,1.7,1.7,0,0,1-.07.51,2.06,2.06,0,0,1-1.15,1.4Z"/><path class="cls-1" d="M5.36,3.7l-.2,0a1.7,1.7,0,0,0-1,.33,1.76,1.76,0,0,0-.73,1.42v.2h0L5.36,3.7Z"/><path class="cls-1" d="M57.36,4.82a.94.94,0,0,0,0,.16,1.63,1.63,0,0,0-.07.45,1.71,1.71,0,0,0,.28,1,1.77,1.77,0,0,0,1.47.8l.2,0a1.43,1.43,0,0,0,.41-.09L57.36,4.82Z"/><path class="cls-1" d="M60.73,5.63l0-.2A1.75,1.75,0,0,0,59,3.68l-.2,0h0l1.93,1.93Z"/><path class="cls-1" d="M6.8,4.82,4.55,7.07h0A1.87,1.87,0,0,0,5,7.16l.2,0a1.77,1.77,0,0,0,1.47-.8,1.71,1.71,0,0,0,.28-1A2.12,2.12,0,0,0,6.85,5C6.83,4.93,6.82,4.87,6.8,4.82Z"/></g><g id="Bg_bottom" data-name="Bg bottom"><path class="cls-2" d="M60.75,57.8l0-.2L58.8,59.53h0l.2,0a1.76,1.76,0,0,0,1.75-1.75Z"/><path class="cls-2" d="M6.8,58.41a.85.85,0,0,0,0-.17,1.62,1.62,0,0,0,.07-.44,1.74,1.74,0,0,0-.34-1,1.58,1.58,0,0,0-.28-.3,1.73,1.73,0,0,0-1.13-.42l-.2,0-.23,0-.18,0h0L6.8,58.41Z"/><path class="cls-2" d="M63.27,4.89h0a38.33,38.33,0,0,1-6.68,20.87A25.4,25.4,0,0,1,57.14,31,25.13,25.13,0,0,1,14.23,48.77a24.94,24.94,0,0,1-3.49-4.35,41,41,0,0,1-10.38-4V56.92a6.73,6.73,0,0,0,6.72,6.72H56.92a6.74,6.74,0,0,0,6.72-6.72V7.08A6.89,6.89,0,0,0,63.27,4.89Zm-58.11,55a2,2,0,0,1-.55-.08,2.1,2.1,0,0,1-1.56-2,1.7,1.7,0,0,1,.07-.51,2.08,2.08,0,0,1,1.15-1.4,3.12,3.12,0,0,1,.43-.15,2.31,2.31,0,0,1,.46-.05A2.14,2.14,0,0,1,7.27,57.8a2,2,0,0,1-.13.7c0,.06,0,.13-.07.19h0a2.06,2.06,0,0,1-1.4,1.15h0A1.7,1.7,0,0,1,5.16,59.91Zm54.27,0a2,2,0,0,1-.43,0h0a1.7,1.7,0,0,1-.51-.07,2.08,2.08,0,0,1-1.4-1.15,1.69,1.69,0,0,1-.15-.43,2.31,2.31,0,0,1,0-.46A2.14,2.14,0,0,1,59,55.69a2,2,0,0,1,.89.2h0A2.06,2.06,0,0,1,61,57.29a1.7,1.7,0,0,1,.07.51,2.12,2.12,0,0,1-1.33,2A2.3,2.3,0,0,1,59.43,59.87Z"/><path class="cls-2" d="M59.61,56.16l-.22-.06-.18,0-.21,0a1.76,1.76,0,0,0-1.75,1.75,1.47,1.47,0,0,0,.06.42c0,.06,0,.13,0,.19h0l2.25-2.25Z"/><path class="cls-2" d="M3.43,57.6h0v.2a1.75,1.75,0,0,0,1.75,1.75l.2,0h0L5,59.21Z"/></g><g id="Frame_and_Rivits" data-name="Frame and Rivits"><path id="Rivit" class="cls-3" d="M3.12,5.94h0a2.06,2.06,0,0,0,1.15,1.4,2,2,0,0,0,.89.2A2.09,2.09,0,0,0,7.22,5a1.7,1.7,0,0,0-.15-.45h0a2.1,2.1,0,0,0-3.4-.6,2.07,2.07,0,0,0-.62,1.49,2,2,0,0,0,.05.43S3.11,5.92,3.12,5.94ZM6.85,5a2.12,2.12,0,0,1,.06.44,1.71,1.71,0,0,1-.28,1,1.77,1.77,0,0,1-1.47.8l-.2,0a1.36,1.36,0,0,1-.41-.09h0L6.8,4.82S6.83,4.93,6.85,5ZM5.36,3.7,3.43,5.63h0v-.2A1.76,1.76,0,0,1,4.14,4a1.7,1.7,0,0,1,1-.33l.2,0Z"/><path id="Rivit-2" data-name="Rivit" class="cls-3" d="M59,7.54l.24,0a2,2,0,0,0,.65-.18h0A2.06,2.06,0,0,0,61,5.94a1.7,1.7,0,0,0,.07-.51,2.11,2.11,0,0,0-.93-1.75,2.18,2.18,0,0,0-.75-.32,2,2,0,0,0-.43,0h0a2,2,0,0,0-.49.07,2.08,2.08,0,0,0-1.4,1.15h0a2.5,2.5,0,0,0-.09.25,2,2,0,0,0-.11.64A2.1,2.1,0,0,0,59,7.54Zm0-3.86a1.75,1.75,0,0,1,1.75,1.75l0,.2h0L58.8,3.7h0ZM57.36,4.82h0l2.25,2.25a1.43,1.43,0,0,1-.41.09l-.2,0a1.77,1.77,0,0,1-1.47-.8,1.71,1.71,0,0,1-.28-1A1.63,1.63,0,0,1,57.32,5,.94.94,0,0,1,57.36,4.82Z"/><path id="Rivit-3" data-name="Rivit" class="cls-3" d="M59.89,55.89h0a2,2,0,0,0-.89-.2,2.14,2.14,0,0,0-2.11,2.11,2.31,2.31,0,0,0,0,.46,1.69,1.69,0,0,0,.15.43,2.08,2.08,0,0,0,1.4,1.15,1.7,1.7,0,0,0,.51.07h0a2,2,0,0,0,.43,0,2.11,2.11,0,0,0,1.68-2.07,1.7,1.7,0,0,0-.07-.51A2.06,2.06,0,0,0,59.89,55.89Zm-2.53,2.52c0-.06,0-.13,0-.19a1.47,1.47,0,0,1-.06-.42A1.76,1.76,0,0,1,59,56.05l.21,0,.18,0,.22.06h0l-2.25,2.25Zm3,.42a1.73,1.73,0,0,1-1.41.72l-.2,0h0l1.93-1.93,0,.2A1.74,1.74,0,0,1,60.41,58.83Z"/><path id="Rivit-4" data-name="Rivit" class="cls-3" d="M4.61,59.83a2,2,0,0,0,.55.08,1.7,1.7,0,0,0,.51-.07h0a2.06,2.06,0,0,0,1.4-1.15h0c0-.06,0-.13.07-.19a2,2,0,0,0,.13-.7,2.14,2.14,0,0,0-2.11-2.11,2.31,2.31,0,0,0-.46.05,3.12,3.12,0,0,0-.43.15,2.08,2.08,0,0,0-1.15,1.4,1.7,1.7,0,0,0-.07.51A2.1,2.1,0,0,0,4.61,59.83Zm.12-3.72.23,0,.2,0A1.76,1.76,0,0,1,6.91,57.8a1.62,1.62,0,0,1-.07.44.85.85,0,0,1,0,.17h0L4.55,56.16h0ZM3.43,57.6h0L5,59.21l.32.32h0l-.2,0A1.75,1.75,0,0,1,3.41,57.8v-.2Z"/><path id="frame" class="cls-3" d="M63.85,5.62a7.09,7.09,0,0,0-5-5.34A6.82,6.82,0,0,0,56.92,0H7.08A6.82,6.82,0,0,0,5.15.28,7.07,7.07,0,0,0,.21,5.4,7.16,7.16,0,0,0,0,7.08V56.92A7.16,7.16,0,0,0,.21,58.6,7.07,7.07,0,0,0,6,63.91a6,6,0,0,0,1,.09H56.92a5.92,5.92,0,0,0,1-.09,7.09,7.09,0,0,0,5.89-5.53A7,7,0,0,0,64,56.92V7.08A7,7,0,0,0,63.85,5.62ZM3.2,1.6l.13-.09A6.62,6.62,0,0,1,7.08.36H56.92a6.74,6.74,0,0,1,6.35,4.53,6.89,6.89,0,0,1,.37,2.19V56.92a6.74,6.74,0,0,1-6.72,6.72H7.08A6.73,6.73,0,0,1,.36,56.92V7.08A6.69,6.69,0,0,1,3.2,1.6Z"/></g><g id="Button"><polygon class="cls-4" points="45.66 37.8 45.66 37.79 45.66 37.8 45.66 37.8"/><path class="cls-5" d="M18.64,33.78l-.79-1.08-.8-1.1.82-1.07,9.75-12.62.28.16L22.62,30.43l.92-.78,2.88-2.42.35-.3,1.31-1.1,8.34-7-.32-.73.28-.16.43.56L45,11.62l-.09-.07A23.31,23.31,0,0,0,10.7,40.47l7.82-6.59Z"/><path class="cls-5" d="M55.09,27.85a23.13,23.13,0,0,0-1.76-6.26l-8.55,7.2,1.35,1.74L47,31.6l-.8,1.1-6.48,8.89,1.24-.67c.91-.57,3.27-2,4.75-3.13h0c.85-.63,1.67-1.3,2.47-2l.24-.21c.76-.67,1.49-1.36,2.2-2.06l.36-.36q1-1.06,2-2.19l.29-.34c.66-.79,1.3-1.6,1.91-2.42C55.12,28.09,55.11,28,55.09,27.85Z"/><path class="cls-5" d="M23.64,46.61h.14c.78-.08,1.56-.19,2.34-.32.33-.05.65-.12,1-.19l.45-.08-1.22-1.67Z"/><path class="cls-5" d="M41.77,31.33l-.66.55-3,2.55-.84.7L27,43.76l.88,2.17h0l.53-.1,1.28-.32.95-.25c.5-.14,1-.3,1.49-.46l.69-.22c.55-.18,1.09-.39,1.64-.59l.47-.19c.59-.23,1.18-.48,1.77-.74l.29-.13.41-.21,4.51-11.07Z"/><path class="cls-5" d="M42.44,25.76l1.26,1.63L52.53,20c0-.05-.05-.11-.08-.16-.31-.56-.64-1.1-1-1.64L43.38,25Z"/><polygon class="cls-5" points="25.5 40.03 26.32 42.04 26.53 41.86 37.05 32.99 41.04 29.63 40.2 27.65 35.83 31.32 25.5 40.03"/><path class="cls-5" d="M24.07,41.24l-6.55,5.52h.06c.7,0,1.41.05,2.12.05h1l4.62-3.9Z"/><polygon class="cls-6" points="35.83 31.32 40.2 27.65 36.41 18.8 28.08 25.83 26.77 26.93 26.42 27.23 23.54 29.65 22.62 30.43 22.09 31.66 25.5 40.03 35.83 31.32"/><path class="cls-6" d="M18.64,33.78l-.12.1L10.7,40.47a.49.49,0,0,1,0,.11A23.78,23.78,0,0,0,13.32,45c.4.53.83,1,1.28,1.55,1,.12,1.93.21,2.92.26l6.55-5.52Z"/><path class="cls-6" d="M51.36,18a22.23,22.23,0,0,0-2.88-3.5A23.06,23.06,0,0,0,45,11.62l-8.14,6.85,5.63,7.29.94-.79,8.07-6.81A1.1,1.1,0,0,0,51.36,18Z"/><polygon class="cls-6" points="37.05 32.99 26.53 41.86 26.32 42.04 27.02 43.76 37.26 35.13 38.1 34.43 41.11 31.88 41.77 31.33 41.04 29.63 37.05 32.99"/><path class="cls-6" d="M53.29,21.49c-.24-.52-.49-1-.76-1.53L43.7,27.39l1.08,1.4,8.55-7.2A.3.3,0,0,1,53.29,21.49Z"/><path class="cls-6" d="M20.67,46.8l-3,2.55,0,0,3-2.59c1,0,2-.09,2.92-.19l2.69-2.27-1-1.44Z"/><path class="cls-7" d="M15.52,47.48c.17.18.35.34.53.51l1.47-1.23c-1,0-2-.14-2.92-.26C14.89,46.83,15.2,47.16,15.52,47.48Z"/><path class="cls-7" d="M20.72,46.8l-3,2.59c.47.36.95.71,1.43,1l4.53-3.81C22.67,46.71,21.7,46.77,20.72,46.8Z"/><path class="cls-8" d="M19.7,46.81c-.71,0-1.42,0-2.12-.05h-.06L16.05,48l0,0c.5.47,1,.9,1.55,1.32l3-2.55Z"/><path class="cls-8" d="M55.14,28.22c-.61.82-1.25,1.63-1.91,2.42l-.29.34q-1,1.13-2,2.19l-.36.36c-.71.7-1.44,1.39-2.2,2.06l-.24.21c-.8.69-1.62,1.36-2.47,2h0c-1.48,1.09-3.84,2.56-4.75,3.13l-1.24.67-3.28,4.5-.29-.16,1.3-3.2-.41.21-.29.13c-.59.26-1.18.51-1.77.74l-.47.19c-.55.2-1.09.41-1.64.59l-.69.22c-.5.16-1,.32-1.49.46l-.95.25-1.28.32-.53.1-.27.15L27.55,46l-.45.08c-.33.07-.65.14-1,.19-.78.13-1.56.24-2.34.32h-.14l-4.53,3.81.1.07A23.3,23.3,0,0,0,55.14,28.22Z"/><polygon class="cls-3" points="26.32 42.04 25.5 40.03 22.09 31.66 22.62 30.43 27.9 18.07 27.61 17.91 17.87 30.54 17.05 31.6 17.85 32.7 18.64 33.78 24.07 41.23 25.29 42.91 26.34 44.34 27.55 46.01 27.61 46.09 27.89 45.94 27.9 45.93 27.02 43.76 26.32 42.04"/><polygon class="cls-3" points="46.13 30.54 44.78 28.79 43.7 27.39 42.44 25.76 36.81 18.47 36.38 17.91 36.1 18.07 36.41 18.8 40.2 27.65 41.04 29.63 41.77 31.33 41.91 31.66 37.4 42.73 36.1 45.93 36.39 46.09 39.66 41.59 46.15 32.7 46.95 31.6 46.13 30.54"/><path id="Frame-2" data-name="Frame" class="cls-3" d="M10.74,44.42a25.13,25.13,0,0,0,39,4.35A25,25,0,0,0,57.14,31a25.4,25.4,0,0,0-.55-5.24A25.13,25.13,0,0,0,14.23,13.23a25.12,25.12,0,0,0-3.49,31.19Zm37.74-29.9A22.23,22.23,0,0,1,51.36,18a19.43,19.43,0,0,1,1.09,1.79q.45.82.84,1.68a22.83,22.83,0,0,1,1.8,6.36c0,.12,0,.24,0,.37A23.31,23.31,0,0,1,19.21,50.49c-.52-.34-1-.71-1.53-1.1s-1.07-.88-1.59-1.36l-.57-.55c-.32-.32-.63-.65-.92-1-.45-.5-.88-1-1.28-1.55a23.78,23.78,0,0,1-2.58-4.37,23.32,23.32,0,0,1,34.12-29A23.72,23.72,0,0,1,48.48,14.52Z"/></g></g></g></g></svg>