<?xml version="1.0" encoding="UTF-8" standalone="no"?>
<svg
   xmlns:dc="http://purl.org/dc/elements/1.1/"
   xmlns:cc="http://creativecommons.org/ns#"
   xmlns:rdf="http://www.w3.org/1999/02/22-rdf-syntax-ns#"
   xmlns:svg="http://www.w3.org/2000/svg"
   xmlns="http://www.w3.org/2000/svg"
   xmlns:sodipodi="http://sodipodi.sourceforge.net/DTD/sodipodi-0.dtd"
   xmlns:inkscape="http://www.inkscape.org/namespaces/inkscape"
   width="24"
   height="24"
   viewBox="0 0 24 24"
   version="1.1"
   id="svg3777"
   sodipodi:docname="clubhouse-notification-button-previous-symbolic.svg"
   inkscape:version="0.92.4 5da689c313, 2019-01-14">
  <metadata
     id="metadata3783">
    <rdf:RDF>
      <cc:Work
         rdf:about="">
        <dc:format>image/svg+xml</dc:format>
        <dc:type
           rdf:resource="http://purl.org/dc/dcmitype/StillImage" />
        <dc:title>Path</dc:title>
      </cc:Work>
    </rdf:RDF>
  </metadata>
  <defs
     id="defs3781" />
  <sodipodi:namedview
     pagecolor="#ffffff"
     bordercolor="#666666"
     borderopacity="1"
     objecttolerance="10"
     gridtolerance="10"
     guidetolerance="10"
     inkscape:pageopacity="0"
     inkscape:pageshadow="2"
     inkscape:window-width="1368"
     inkscape:window-height="692"
     id="namedview3779"
     showgrid="false"
     inkscape:pagecheckerboard="true"
     inkscape:zoom="11.947158"
     inkscape:cx="3.2587945"
     inkscape:cy="13.934656"
     inkscape:window-x="0"
     inkscape:window-y="0"
     inkscape:window-maximized="1"
     inkscape:current-layer="svg3777" />
  <!-- Generator: Sketch 52.2 (67145) - http://www.bohemiancoding.com/sketch -->
  <title
     id="title3768">Path</title>
  <desc
     id="desc3770">Created with Sketch.</desc>
  <g
     id="Symbols"
     style="fill:none;fill-rule:evenodd;stroke:none;stroke-width:1"
     transform="matrix(-1,0,0,1,18.892121,0)">
    <g
       id="icon_next_v02"
       transform="translate(-6)"
       style="fill:#ffffff">
      <g
         id="Path">
        <path
           d="M 8.754,23.778 6.1095,21.1215 C 6.038969,21.05115 5.9993297,20.95562 5.9993297,20.856 c 0,-0.09962 0.039639,-0.195147 0.1101703,-0.2655 l 8.391,-8.349 c 0.07062,-0.07061 0.110299,-0.166384 0.110299,-0.26625 0,-0.09987 -0.03968,-0.195641 -0.110299,-0.26625 L 6.1125,3.3585 C 6.0420594,3.2884033 6.0024572,3.1931252 6.0024572,3.09375 6.0024572,2.994375 6.0420592,2.8990967 6.1125,2.829 l 2.643,-2.658 c 0.1468648,-0.14606742 0.3841352,-0.14606742 0.531,0 l 9.723,9.6795 c 0.565631,0.563005 0.883621,1.328182 0.883621,2.12625 0,0.798068 -0.31799,1.563245 -0.883621,2.12625 L 9.285,23.7795 C 9.1377229,23.925153 8.9004519,23.924483 8.754,23.778 Z"
           id="path3772"
           inkscape:connector-curvature="0" />
      </g>
    </g>
  </g>
</svg>
