<?xml version="1.0" encoding="UTF-8"?>
<svg width="14px" height="24px" viewBox="0 0 14 24" version="1.1" xmlns="http://www.w3.org/2000/svg" xmlns:xlink="http://www.w3.org/1999/xlink">
    <!-- Generator: Sketch 52.2 (67145) - http://www.bohemiancoding.com/sketch -->
    <title>Path</title>
    <desc>Created with Sketch.</desc>
    <g id="Symbols" stroke="none" stroke-width="1" fill="none" fill-rule="evenodd">
        <g id="icon_next_v02" transform="translate(-6.000000, 0.000000)" fill="#FFFFFF">
            <g id="Path">
                <path d="M8.754,23.778 L6.1095,21.1215 C6.03896872,21.0511468 5.99932966,20.9556204 5.99932966,20.856 C5.99932966,20.7563796 6.03896872,20.6608532 6.1095,20.5905 L14.5005,12.2415 C14.5711223,12.1708906 14.6107986,12.0751159 14.6107986,11.97525 C14.6107986,11.8753841 14.5711223,11.7796094 14.5005,11.709 L6.1125,3.3585 C6.04205936,3.28840334 6.00245718,3.19312517 6.00245718,3.09375 C6.00245718,2.99437483 6.04205936,2.89909666 6.1125,2.829 L8.7555,0.171 C8.90236484,0.0249325779 9.13963516,0.0249325779 9.2865,0.171 L19.0095,9.8505 C19.575131,10.4135051 19.8931208,11.1786816 19.8931208,11.97675 C19.8931208,12.7748184 19.575131,13.5399949 19.0095,14.103 L9.285,23.7795 C9.13772287,23.9251534 8.90045188,23.9244831 8.754,23.778 Z"></path>
            </g>
        </g>
    </g>
</svg>