<?xml version="1.0" encoding="UTF-8" standalone="no"?>
<svg xmlns="http://www.w3.org/2000/svg" version="1.1"
     height="16" width="16" viewBox="0 0 16 16">
  <defs>
    <linearGradient
       gradientTransform="matrix(0.24999858,0,0,0.25,-2.7284294e-4,-0.25)"
       gradientUnits="userSpaceOnUse"
       y2="32.835999"
       x2="64.001999"
       y1="32.835999"
       x1="0.0020000001"
       id="a">
      <stop
         stop-opacity="0.2"
         stop-color="#bebebe"
         offset="0" />
      <stop
         stop-color="#bebebe"
         offset="0.33" />
      <stop
         stop-color="#bebebe"
         offset="1" />
    </linearGradient>
    <linearGradient
       gradientTransform="matrix(0.24999858,0,0,0.25,-2.7284294e-4,-0.25)"
       gradientUnits="userSpaceOnUse"
       y2="30.558001"
       x2="64.001999"
       y1="30.558001"
       x1="0.0020000001"
       id="b">
      <stop
         stop-opacity="0.2"
         stop-color="#bebebe"
         offset="0.001" />
      <stop
         stop-opacity="0.385"
         stop-color="#bebebe"
         offset="0.058" />
      <stop
         stop-opacity="0.65"
         stop-color="#bebebe"
         offset="0.154" />
      <stop
         stop-opacity="0.842"
         stop-color="#bebebe"
         offset="0.242" />
      <stop
         stop-opacity="0.959"
         stop-color="#bebebe"
         offset="0.319" />
      <stop
         stop-color="#bebebe"
         offset="0.376" />
      <stop
         stop-color="#bebebe"
         offset="0.706" />
      <stop
         stop-color="#bebebe"
         offset="1" />
    </linearGradient>
  </defs>
  <path
     style="opacity:0.62999998;fill:url(#a);stroke-width:0.25"
     d="M 7.9996817,0.6035 V 5 H 5.9889431 C 1.4997186,5 -2.7284294e-4,1 -2.7284294e-4,1 V 5.98775 A 3.9177277,3.91775 0 0 0 0.70847313,8.26125 6.2999642,6.3 0 0 0 5.9996931,11 h 1.9999886 v 4.31375 a 0.24999858,0.25 0 0 0 0.4304976,0.173 C 10.10117,13.72025 15.999636,8 15.999636,8 L 8.4269293,0.42675 A 0.24999858,0.25 0 0 0 7.9996817,0.6035 Z"
     class="b" />
  <path
     style="fill:url(#b);stroke-width:0.25"
     d="M 7.9996817,0.52925 V 4.925 H 5.9889431 c -4.4892245,0 -5.98921594294,-4 -5.98921594294,-4 v 4 A 3.9177277,3.91775 0 0 0 0.70897313,7.2 6.2999642,6.3 0 0 0 5.9996931,9.938 h 1.9999886 v 4.30175 a 0.25299856,0.253 0 0 0 0.4304976,0.185 C 10.10117,12.65825 15.999636,7.925 15.999636,7.925 L 8.4269293,0.3525 A 0.24999858,0.25 0 0 0 7.9996817,0.52925 Z"
     class="c" />
</svg>
